# xmcd
#
# Track frame offsets:
#	150
#	19814
#	35088
#	49501
#	67338
#	83733
#	99919
#	117694
#	130526
#	147028
#	161562
#
# Disc length: 2551 seconds
#
# Revision: 3
# Processed by: cddbd v1.5.2PL0 Copyright (c) Steve Scherf et al.
# Submitted via: EZCDAudioConverter 4.0.5.1
#
DISCID=9209f50b
DTITLE=Various Artist - Alabama and Friends
DYEAR=2013
DGENRE=Country
TTITLE0=Alabama with Jason Aldean - Tennessee River
TTITLE1=Alabama with Luke Bryan - Love In the First Degree
TTITLE2=Alabama with Rascal Flatts - Old Flame
TTITLE3=Alabama with Kenny Chesney - Lady Down On Love
TTITLE4=Alabama with Eli Young Band - The Closer You Get
TTITLE5=Alabama with Trisha Yearwood - Forever's As Far As I'll Go
TTITLE6=Alabama with Toby Keith - She and I
TTITLE7=Alabama with Florida Georgia Line - I'm In A Hurry (And Don't Know Why
TTITLE7=)
TTITLE8=Alabama - That's How I Was Raised
TTITLE9=Alabama - All American
TTITLE10=Alabama with Jamey Johnson - My Home's In Alabama
EXTD=
EXTT0=
EXTT1=
EXTT2=
EXTT3=
EXTT4=
EXTT5=
EXTT6=
EXTT7=
EXTT8=
EXTT9=
EXTT10=
PLAYORDER=
